<?xml version="1.0" encoding="utf-8"?>
<!-- Generator: Adobe Illustrator 27.2.0, SVG Export Plug-In . SVG Version: 6.00 Build 0)  -->
<svg version="1.1" id="Layer_1" xmlns="http://www.w3.org/2000/svg" xmlns:xlink="http://www.w3.org/1999/xlink" x="0px" y="0px"
	 viewBox="0 0 120 120" style="enable-background:new 0 0 120 120;" xml:space="preserve">
<style type="text/css">
	.st0{fill:#FFFFFF;}
</style>
<path class="st0" d="M60,12c-26.5,0-48,21.5-48,48c0,22.5,15.5,41.3,36.4,46.5c-0.2-0.6-0.4-1.4-0.4-2.3V96c-1.9,0-5.2,0-6,0
	c-3.3,0-6.2-1.4-7.6-4c-1.6-2.9-1.8-7.4-5.7-10.1c-1.2-0.9-0.3-1.9,1.1-1.8c2.5,0.7,4.5,2.4,6.4,4.9c1.9,2.5,2.8,3.1,6.4,3.1
	c1.7,0,4.3-0.1,6.8-0.5c1.3-3.3,3.6-6.4,6.4-7.8C39.6,78,32,70.1,32,59.3c0-4.6,2-9.1,5.3-12.9c-1.1-3.8-2.5-11.4,0.4-14.3
	c7.2,0,11.5,4.7,12.6,5.9C53.9,36.7,57.8,36,62,36c4.1,0,8.1,0.7,11.7,1.9c1-1.3,5.4-5.9,12.6-5.9c2.9,2.9,1.5,10.6,0.4,14.4
	C90,50.2,92,54.6,92,59.3c0,10.8-7.6,18.7-23.6,20.4C72.8,82,76,88.4,76,93.3v10.9c0,0.4-0.1,0.7-0.1,1.1C94.6,98.7,108,80.9,108,60
	C108,33.5,86.5,12,60,12z"/>
</svg>
