<?xml version="1.0" encoding="utf-8"?>
<!-- Generator: Adobe Illustrator 27.2.0, SVG Export Plug-In . SVG Version: 6.00 Build 0)  -->
<svg version="1.1" id="Layer_1" xmlns="http://www.w3.org/2000/svg" xmlns:xlink="http://www.w3.org/1999/xlink" x="0px" y="0px"
	 viewBox="0 0 120 120" style="enable-background:new 0 0 120 120;" xml:space="preserve">
<style type="text/css">
	.st0{fill:#FFFFFF;}
</style>
<path class="st0" d="M108,61.3c0,26.5-21.5,48-48,48s-48-21.5-48-48s21.5-48,48-48S108,34.8,108,61.3z M41.6,45.4c3.7,0,6-2.2,6-5.2
	s-2.2-5.2-5.6-5.2c-3.7,0-6,2.2-6,5.2S38.2,45.4,41.6,45.4z M36,81.3h12v-32H36V81.3z M77.8,49.3c-5.6,0-8.7,1.9-10.2,4.5v-4.5H56
	v32h11.7c0,0,0-16.7,0-17.5c0-5.2,3.8-6,4.9-6s4.1,1.1,4.1,6v17.5H88V63.8C88,53.8,83.5,49.3,77.8,49.3z"/>
</svg>
