<?xml version="1.0" encoding="utf-8"?>
<!-- Generator: Adobe Illustrator 27.2.0, SVG Export Plug-In . SVG Version: 6.00 Build 0)  -->
<svg version="1.1" id="Layer_1" xmlns="http://www.w3.org/2000/svg" xmlns:xlink="http://www.w3.org/1999/xlink" x="0px" y="0px"
	 viewBox="0 0 1024 1024" style="enable-background:new 0 0 1024 1024;" xml:space="preserve">
<style type="text/css">
	.st0{fill-rule:evenodd;clip-rule:evenodd;fill:#212121;}
</style>
<g id="_x3C_Plane_x3E_">
	<path class="st0" d="M329.8,172c-144.7,0-238.6,1.4-236.3,3.6c2.1,2,37.1,21.6,77.8,43.6c40.7,22,96.4,52.5,123.8,67.8
		c56.5,31.6,53.9,28,68.9,97c4.5,20.9,10.4,40.3,13,43.1c4.9,5.3,9.2,3.6,98.3-37.9c16.5-7.7,62.4-28.3,102-45.8
		c93.6-41.4,83.6-36.8,178-80.7c113.8-52.9,164-78,164-82C919.2,176.3,631.9,172,329.8,172z M381.2,310l-2,50l-2,50l-5.2-25.3
		c-2.9-13.9-8.7-36.4-12.9-50l-7.7-24.7l-47-26l-47-26l20-2.8c41.1-5.8,158.7-19.2,240-27.2c46.2-4.6,112.8-11.5,148-15.4
		c60.4-6.7,158.2-11.3,153.9-7.3c-1.1,1-15.4,4.7-31.9,8.2c-16.5,3.5-68.7,15.5-116,26.6c-47.3,11.1-91.4,21.3-98,22.5
		s-52.5,12.4-102,24.8L381.2,310z M390.9,413.8c-2-1.2-3.6-21.9-3.6-46s0.9-43.8,2-43.8c2.7,0,71.7,56.3,73,59.6
		C463.8,387.4,395.1,416.4,390.9,413.8z M839.2,213.8c-9.4,5.1-124.6,59-142,66.4c-4.4,1.9-20.6,9.2-36,16.2
		c-103.8,47.4-162.3,72.5-177.1,75.8l-17.1,3.9l-36.3-30c-43.3-35.8-50-30,64.4-56c5.5-1.2,34.3-8.5,64-16.1
		c29.7-7.6,82.8-20.4,118-28.6c35.2-8.1,84.7-19.6,110-25.6c25.3-6,49.6-11,54-11.2C848.1,208.4,847.8,209.1,839.2,213.8z
		 M787.2,196.2c-34.1,2.1-107,8.4-162,14.1s-126.3,12.7-158.5,15.8c-61.4,5.8-70.6,6.9-141.5,16.1c-81.4,10.6-75.5,11.7-149-27.9
		c-35.7-19.3-65-35.5-65-36.2c0-1.9,552.3,1.8,660,4.5C885.3,185.5,890.5,189.9,787.2,196.2z"/>
</g>
<g id="Set1">
	<path class="st0" d="M287.1,459.2c-14.4,13.1-15.6,23.6-4.2,35.9c12.4,13.4,27.5,13.7,40.3,1C346.1,473.1,311.1,437.3,287.1,459.2"
		/>
	<path class="st0" d="M458,651.9c-6.2,4.4-8.9,10.3-8.9,19.9c0,11.1,2.2,14.8,12,19.9c14.7,7.6,29.4,4.5,35.9-7.7
		c5.4-10.2,4.3-26.5-1.8-26.7c-2.2-0.1-5.4-2.7-7.2-5.8C483.7,643.9,469.1,644.1,458,651.9"/>
	<path class="st0" d="M577.8,732.1c-13.7,9.6-17.8,23.8-10.8,37.3c3.2,6.2,8.8,12.4,12.3,13.8c33.9,13,60.9-22.8,36-47.7
		C604,724.2,590.8,723,577.8,732.1"/>
	<path class="st0" d="M467.9,312.2c-11.2,11.2-10.1,25.7,2.5,35.7c12.6,9.9,20.6,10.4,32.6,2.1c11.2-7.8,12.1-29.6,1.6-39.2
		C494.7,301.8,477.6,302.5,467.9,312.2"/>
</g>
<g id="Set3">
	<path class="st0" d="M644.2,404c-14,7.6-18,22.6-9.4,35.7c14.7,22.4,47.4,15.6,49.6-10.3C686.2,406.6,664.6,393,644.2,404"/>
	<path class="st0" d="M442.7,501.6c-12.7,5.1-25.6,23.7-25.6,36.8c0,16.2,9.4,32.8,21.9,38.5c41.5,18.9,83.3-27.5,54.6-60.6
		C479.7,500.3,460,494.6,442.7,501.6"/>
	<path class="st0" d="M207.6,291.3c-9.6,9.6-10.2,19.1-1.8,31.1c12.6,18,45.8,7.6,45.8-14.4c0-11.7-13.7-24.7-26-24.7
		C220.1,283.3,212,286.9,207.6,291.3"/>
	<path class="st0" d="M513.1,865.6c-17.1,17.1-5.6,44,18.7,44c23.5,0,33.9-27.7,16.5-43.8C537.3,855.4,523.4,855.3,513.1,865.6"/>
</g>
<g id="Set4">
	<path class="st0" d="M517.8,439.8c-13.2,5.5-17.3,12.6-17.3,29.6c0,32.2,48.5,39.7,59.1,9.2C568.7,452.3,543.6,429,517.8,439.8"/>
	<path class="st0" d="M385.1,621.7c-18.3,18.3-4.8,52,20.9,52c14.5,0,31.1-16.1,31.1-30C437.1,619.3,402.3,604.5,385.1,621.7"/>
	<path class="st0" d="M645.1,629.7c-17.1,17.1-5.6,44,18.7,44c23.5,0,33.9-27.7,16.5-43.8C669.3,619.5,655.4,619.4,645.1,629.7"/>
	<path class="st0" d="M772,314.3c-5.4,5.4-9.8,14.5-9.8,20.2c0,13,16.6,30,29.3,30c15.6,0,30.7-14.5,30.7-29.6
		C822.2,307.8,791.2,295.1,772,314.3"/>
</g>
<g id="Set5">
	<path class="st0" d="M349.5,549h-13.3c-14.8,0-24.5,8.4-28.5,24.4c-3.8,15.1,12.3,32.9,29.6,32.9c25.4,0,39.3-30.6,22.4-49.3"/>
	<path class="st0" d="M682.1,454.7c-20.4,11.9-28.5,41.3-17.3,62.4c6.6,12.4,27.8,24.5,42.7,24.5c15.5,0,37.8-14.7,45-29.5
		c6.9-14.3,3.1-35.2-8.9-49.1c-7.4-8.6-13.4-10.9-30.8-12.1"/>
	<path class="st0" d="M294.1,399.8c-14.5,14.5-10.8,35,7.7,42.1c20.2,7.7,40.5-9.7,35.4-30.1C332.9,394.5,306.7,387.2,294.1,399.8"
		/>
	<path class="st0" d="M530.7,630.2c-12.7,5.1-25.6,23.7-25.6,36.8c0,16.2,9.4,32.8,21.9,38.5c41.5,18.9,83.3-27.5,54.6-60.6
		C567.7,628.8,548,623.2,530.7,630.2"/>
	<path class="st0" d="M712.8,451c-13.2-0.9-25.2,0.6-30.7,3.8"/>
</g>
<g id="Set8">
	<path class="st0" d="M599.4,487c-5.6,5.6-10.3,13.9-10.3,18.4c0,12.5,14.1,24.2,29.4,24.2c33.4,0,36.8-43.9,3.9-50.4
		C612.1,477.3,607.7,478.7,599.4,487"/>
	<path class="st0" d="M514.9,791.5c-16,16-11.9,38.4,9.1,49.6c30.2,16.1,57.3-27.9,31.1-50.4C541.5,779,527.2,779.3,514.9,791.5"/>
</g>
<g id="Set6">
	<path class="st0" d="M652,543.4c-8.5,4.1-17.5,19-17.5,29c0,2.9,3.7,10,8.3,15.8c6.3,8.1,11.8,10.5,23.4,10.5
		c16.8,0,26.1-7.7,30.4-24.9c2.2-8.8,0.4-13.2-9.4-23C674.7,538.1,666.4,536.4,652,543.4"/>
	<path class="st0" d="M465.6,709.7c-35.2,21.9-10.2,79,31.2,71.2c15.8-3,33.8-22.5,33.8-36.7c0-13-10.1-32.2-19.8-37.4
		C499.3,700.6,478,702,465.6,709.7"/>
	<path class="st0" d="M774.2,380.8c-12.5,13.9-4.1,36.7,15.8,42.4c20.8,6,39-27.8,23.3-43.4C804.7,371.1,782.4,371.7,774.2,380.8"/>
	<path class="st0" d="M354.5,469.1c-15,8.7-21,30.3-12.7,45.8c4.9,9.1,20.4,18,31.4,18c11.3,0,27.8-10.8,33-21.6
		c5.1-10.5,2.3-25.8-6.5-36.1c-5.4-6.3-9.8-8-22.6-8.9"/>
</g>
<g id="Set7">
	<path class="st0" d="M269.1,329.6c-8.5,4.2-17.5,19.1-17.5,29.1c0,2.9,3.7,10,8.3,15.8c16.2,20.6,51.7,8,51.7-18.3
		C311.6,335.4,287.7,320.4,269.1,329.6"/>
	<path class="st0" d="M692.7,352.8c-21.7,17.1-7.8,51.7,20.7,51.7c26.8,0,38.4-30.7,18.9-50.2C720.4,342.3,706.7,341.8,692.7,352.8"
		/>
	<path class="st0" d="M532,545.1c-35.2,21.9-10.2,79,31.2,71.2c15.8-3,33.8-22.5,33.8-36.7c0-13-10.1-32.2-19.8-37.4
		C565.7,536,544.4,537.4,532,545.1"/>
</g>
</svg>
