<svg width="1024" height="1024" viewBox="0 0 1024 1024" fill="none" xmlns="http://www.w3.org/2000/svg">
<rect width="1024" height="1024" fill="#1E1E1E"/>
<path fill-rule="evenodd" clip-rule="evenodd" d="M530 186.6C516.8 192.2 505.5 197.3 504.9 197.8C504.3 198.3 506.8 211.2 510.3 226.4C513.9 241.6 518.9 263 521.4 274L526 294L545 295.2C566.3 296.6 570.1 302.4 566 328C564.8 335.7 562.3 373.9 560.6 413C558.8 452 556.2 485.2 554.7 486.7C553.2 488.2 523.6 492.6 489 496.6C454.4 500.5 419.2 505.7 411 508.1C398.9 511.6 391.6 511.1 374.1 505.5L352.3 498.6L332.6 509.3C321.8 515.2 309.6 519.9 305.5 519.7C299 519.5 299.1 519 306.6 516L315.2 512.5L305.5 467.7C300.2 443.1 293.2 419.1 289.9 414.5C286.7 409.9 284 399.8 283.9 392C283.9 384.2 279.2 359 273.6 335.9C268 312.8 262.1 288.5 260.5 281.9C258.3 272.6 255.4 269.9 247.8 269.9C239 269.9 237.7 272 235.6 289.9C233.7 305.6 236.5 322.4 248.4 367.6C259.1 408.3 262.4 427.4 259.8 432.3C257.7 436.2 256 461 256 487.6V536H232C209.1 536 208 536.4 208 546C208 555.8 208.5 556 240 556H272V760C272 938.7 272.7 964 278 964C283.2 964 284 945.2 284.1 819C284.2 718.5 285.5 676.2 288.3 681C294.8 692.2 314.7 689.9 328.3 676.3C341.3 663.3 342.8 653.1 334.3 636.7C326.7 622 311.5 614.3 296 617.4L283.6 619.9L284.8 589L286 558L330 557.9C411.2 557.7 428 556.4 428 550.7C428 546.5 432.6 546.1 449 548.7C460.6 550.5 487.6 553.1 509 554.4L548 556.8V574V591.2L523 593.9C496.9 596.8 437.1 615.3 410.7 628.7C402.3 633 392.4 641.8 388.7 648.2C385 654.7 378.8 661 374.8 662.3C364.4 665.6 352.1 687.7 352.1 702.9C352.1 723.1 370.4 740.9 393.9 743.7L412.8 745.9L440.8 805.9C456.2 838.9 472.2 874.4 476.4 884.8C485.6 907.9 485.5 907.9 436.1 917.8C417.4 921.5 400.6 926 398.7 927.8C396.8 929.6 397.4 934.8 399.8 939.4C404.1 947.4 403.4 947.8 386.2 947.8C370.7 947.8 368.1 949 368.1 955.8C368.1 963.7 370.8 963.8 568.1 963.8C765.4 963.8 768.1 963.7 768.1 955.8C768.1 950.3 765.4 947.8 759.5 947.8H750.9L752.8 779.8C753.9 687.4 755.7 610.8 756.9 609.6C758.1 608.4 763.9 611.9 769.8 617.4C784.3 630.8 799.9 633.7 817.7 626.2C827.5 622.1 834.1 615.8 837.8 607C854 568.3 810.8 536.8 773 559.8L760 567.7V546.4C760 527.8 761.5 523.8 772 514.4C786.5 501.5 787.8 485.3 775.4 472.1C767.6 463.8 767.1 459.9 769.3 431.3L771.7 399.7H756.4H741.1L738.6 426.7C737.2 441.6 736 503.6 736 564.7V675.7H723.5C712.3 675.7 711.6 675 716.5 669.1C720.7 664 721.9 647.7 721.4 600.1C720.9 546.4 712 454.9 705.7 438.4C704.6 435.5 708.1 431.2 713.7 428.6C724.9 423.5 730.1 409 726.3 393.6C724.5 386.4 720.3 382.8 711.6 381.1C702.2 379.2 700.2 377.2 702.5 372.2C704.2 368.6 705.5 358.8 705.5 350.4C705.5 329.9 692.9 320 667 319.9C647 319.8 622 309.2 609.7 295.6C602.9 288.1 602.9 286.9 609.4 273.3C621.8 247.3 623 203.8 611.4 203.8C609 203.8 600 197.5 591.5 189.8C572.8 173.1 562.8 172.6 530 186.6Z" fill="#F14546"/>
<path fill-rule="evenodd" clip-rule="evenodd" d="M348.9 210.2C342.4 214.8 340 220.5 340 231.6C340 250.1 350.8 261.3 368.7 261.3C394.3 261.3 405.7 228.1 385.5 212.3C372.9 202.4 361 201.7 348.9 210.2Z" fill="#F14546"/>
<path fill-rule="evenodd" clip-rule="evenodd" d="M672.6 222.2C665.9 236.9 667.2 240 674.4 226.7C677.8 220.5 679.8 214.6 678.9 213.7C678 212.7 675.2 216.6 672.6 222.2Z" fill="#F14546"/>
<path fill-rule="evenodd" clip-rule="evenodd" d="M668.1 250.3C668.1 254.5 670 260.7 672.2 264C675.2 268.4 675.5 266.8 673.6 258C670.3 243.3 668 240.1 668.1 250.3Z" fill="#F14546"/>
<path fill-rule="evenodd" clip-rule="evenodd" d="M377.3 277.6C356.5 295.1 358.2 325.9 380.9 341.8C404.1 358 440 339 440 310.5C440 298.7 442.1 295.1 451.8 290.1C458.3 286.7 467.3 284 471.8 284C476.3 284 480 282.2 480 280C480 274.4 474.7 275 455.9 282.5C440.1 288.8 439.3 288.7 430.2 280.2C425 275.3 413.8 270.4 405.2 269.3C392.4 267.5 387.4 269 377.3 277.6Z" fill="#F14546"/>
<path fill-rule="evenodd" clip-rule="evenodd" d="M486.4 272.7C487.5 274.5 491.8 276 496 276C500.2 276 504.5 274.5 505.6 272.7C506.7 270.9 502.4 269.4 496 269.4C489.6 269.4 485.3 270.8 486.4 272.7Z" fill="#F14546"/>
<path fill-rule="evenodd" clip-rule="evenodd" d="M684 285.7C684 286.8 687.6 289.6 692 292C696.4 294.4 700 295.4 700 294.3C700 293.2 696.4 290.4 692 288C687.6 285.6 684 284.6 684 285.7Z" fill="#F14546"/>
<path fill-rule="evenodd" clip-rule="evenodd" d="M292 403.5C292 405.7 293.8 408.6 296 410C298.2 411.4 300 410.7 300 408.5C300 406.3 298.2 403.4 296 402C293.8 400.6 292 401.3 292 403.5Z" fill="#F14546"/>
<path fill-rule="evenodd" clip-rule="evenodd" d="M276.3 500.9L276 531.8L285.3 527.5L294.6 523.2L287.2 500.5C283.1 488 279.1 476 278.2 473.8C277.4 471.8 276.5 483.9 276.3 500.9Z" fill="#F14546"/>
<path fill-rule="evenodd" clip-rule="evenodd" d="M513.5 699C514.6 702.9 524.2 737.5 534.8 776L554 846L555.1 774.1C555.7 734.6 555.3 699.9 554.2 697.1C553 693.8 544.7 692 531.8 692C514.3 692 511.7 693 513.5 699Z" fill="#F14546"/>
<path fill-rule="evenodd" clip-rule="evenodd" d="M309.3 60.3C296.8 64.9 291.2 77.2 295.9 89.6C300.9 102.8 316.9 106.9 330.1 98.3C352 83.9 334.1 51.1 309.3 60.3Z" fill="#F14546"/>
<path fill-rule="evenodd" clip-rule="evenodd" d="M150.2 126.8C128.9 132.6 112 155.3 112 178.2C112 208.1 148.6 233.8 177.5 224.2C207 214.5 222 182.9 209.3 157.3C197.5 133.5 172.6 120.7 150.2 126.8Z" fill="#F14546"/>
<path fill-rule="evenodd" clip-rule="evenodd" d="M743.058 120.966C724.358 138.366 730.158 167.266 754.558 177.466C777.958 187.266 800.458 171.966 800.458 146.266C800.458 114.766 766.158 99.5657 743.058 120.966Z" fill="#F14546"/>
<path fill-rule="evenodd" clip-rule="evenodd" d="M710.2 240.9C702 252.6 702.3 261.3 711.3 269.4C726 282.7 748 273.5 748 254C748 233.3 721.9 224.2 710.2 240.9Z" fill="#F14546"/>
<path fill-rule="evenodd" clip-rule="evenodd" d="M127.8 247C105 267.4 108.9 307.8 134.8 319.7C161.5 331.9 191.3 320.1 200 294C214.3 250.6 161.9 216.5 127.8 247Z" fill="#F14546"/>
<path fill-rule="evenodd" clip-rule="evenodd" d="M813.6 341.6C803.1 352.1 800 358.5 800 369.8C800 398.9 820.2 420 848 420C875.8 420 896 398.9 896 369.8C896 358.5 892.9 352.1 882.4 341.6C870.4 329.6 866.3 328 848 328C829.7 328 825.6 329.6 813.6 341.6Z" fill="#F14546"/>
<path fill-rule="evenodd" clip-rule="evenodd" d="M177.4 392C156.4 400.5 149.5 428.8 165 442.7C177.8 454.2 186 456.3 200 451.4C214 446.5 220 437.4 220 421C220 410 207.7 392 200.2 392C198.3 392 194.3 391.2 191.4 390.3C188.4 389.3 182.1 390.1 177.4 392Z" fill="#F14546"/>
<path fill-rule="evenodd" clip-rule="evenodd" d="M877.8 437.8C872.4 443.2 868 451.3 868 455.8C868 467 881.9 480 894 480C906.1 480 920 467.1 920 455.8C920 446.1 903.1 428 894 428C890.5 428 883.2 432.4 877.8 437.8Z" fill="#F14546"/>
<path fill-rule="evenodd" clip-rule="evenodd" d="M828 692C809.9 710.1 822.9 744 848 744C864.3 744 876 731.5 876 714C876 696.5 864.3 684 848 684C841.3 684 832.4 687.6 828 692Z" fill="#F14546"/>
<path fill-rule="evenodd" clip-rule="evenodd" d="M852.2 939.7C843.5 956 860.5 972.1 875.4 961.6C890.5 951 884 932 865.4 932C860.4 932 854.4 935.5 852.2 939.7Z" fill="#F14546"/>
<path fill-rule="evenodd" clip-rule="evenodd" d="M532 187.1C517.7 192.9 505.4 198 504.7 198.5C499.9 201.5 514 216 521.7 216C526.9 216 532.1 218.6 533.4 221.8C534.6 225 541.6 229.2 548.8 231C558.7 233.5 562.3 236.9 563.1 244.2C566.4 272.9 576.7 288 593 287.9C599.9 287.9 603.7 283.7 609.5 269.6C613.6 259.5 617.9 243.4 619 233.8C620.8 218 619.7 215.2 607.5 203.8C577.3 175.7 566.3 173.2 532 187.1ZM830.9 201C821 208.5 815.6 226.4 819.8 237.6C824 248.7 838.6 260 848.7 260C879.6 260 895.1 219 870.7 201.9C860.4 194.7 839.9 194.2 830.9 201ZM242.9 272.4C232.8 278.3 236.2 312.3 253.2 377.2C260.6 405.4 265.1 429.3 263.3 430.4C261.5 431.5 260 455.7 260 484V535.6L235 536.8C213.1 537.8 210 539 210 546C210 553.3 213.1 554.1 243.4 555.2L276.8 556.4L274.1 659.2C271.1 772.6 275.2 960 280.6 960C282.5 960 284.1 869.1 284.1 758V556H354.1C416.2 556 424.1 555.3 424.1 549.5C424.1 544.1 427 543.4 441.1 545.5C450.5 546.9 477.5 549.2 501.1 550.6C527.5 552.2 545.7 555.1 548.2 558.1C550.6 561 551.2 570 549.7 579.5C547.2 595.3 546.5 595.9 532.4 595.9C499.4 595.9 415.4 624.3 398.3 641.2L386.5 652.8L406.6 662.4C427.3 672.3 436 684 436 702.3C436 714 425.5 735.9 419.9 735.9C412.5 735.9 416.2 746.3 451.7 823.9C482.3 890.9 486.5 902.6 481.4 906.6C478.1 909.2 461.6 914.2 444.8 917.9C397.3 928.1 399.3 927.1 402.2 940.3C404.7 951.8 404.6 952 386.4 952C376.3 952 368.1 953.8 368.1 956C368.1 958.6 436.8 960 566.1 960C739.4 960 764.1 959.3 764.1 954C764.1 950.7 760.5 948 756.1 948C748.3 948 748.1 945.3 748.1 830.6C748.1 766 750 690 752.3 661.7C755.5 621.9 755.4 608.1 751.5 601C747.8 594.1 747.6 588.6 750.9 578.9C753.3 571.8 756.5 557.4 757.9 546.9C760.2 530.3 759.2 526.3 750.8 516.3L741.1 504.8L738.5 541C737.1 560.9 735.9 600.4 735.9 628.6V680H721.9C705.9 680 705.5 679.3 714.5 665.6C727.1 646.4 715.6 478.1 697.2 411C690.9 388.1 690.8 388 675.4 388C665.6 388 657.2 385.2 652.4 380.5C642.6 370.7 626.9 328.5 629.4 318.8C630.5 314.6 630.3 312.3 629 313.6C627.7 314.9 624.5 314.2 621.8 311.9C616 307.1 606.9 308.4 587.3 316.9C574.1 322.6 572.3 325.3 568.6 344.6C566.4 356.3 563.6 393.6 562.4 427.5C561.2 461.3 559.7 489.5 559.1 490.1C558.5 490.7 523.8 495.4 482 500.6L406 510L406.6 523C407.2 535.7 399.6 541.1 394 532.1C392.7 529.9 379.1 524.4 363.9 519.7C338.1 511.9 335.4 511.7 323.5 517.6C316.5 521.1 307.4 524 303.2 524C299.1 524 291.2 526.9 285.7 530.5C280.2 534.1 275.1 536.3 274.3 535.5C273.5 534.7 274.1 517.8 275.5 498L278.1 462L286.2 488C292.9 509.5 295.7 513.8 302.1 512.6C306.4 511.8 310.2 510.9 310.6 510.5C313 508.3 293.8 431.2 287.6 417.9C283.5 409.1 280.4 396.5 280.8 389.9C281.6 377.5 255.6 267.9 252 268.1C250.9 268.2 246.8 270.1 242.9 272.4ZM375.7 283.7C367.7 291.7 364 299.4 364 308C364 325 382.8 344 399.6 344C415.4 344 435.2 326.2 438.4 309.2C440.5 298.5 438.9 294.4 428.7 284.2C412.2 267.5 392 267.4 375.7 283.7ZM742.7 402.7C741.2 404.2 740 423.5 740 445.7V486H752C762.8 486 764 484.7 764 473.6C764 466.8 765.2 447.4 766.6 430.6L769.2 400H757.3C750.7 400 744.1 401.2 742.7 402.7ZM512 697.1C512 699.9 519.4 729.2 528.4 762.1C558 869.8 555.2 868.6 555.6 775L556 692H534C518.8 692 512 693.6 512 697.1ZM565.4 698C561.1 709.1 565.7 943.3 570.2 947.9C573 950.7 602.1 951.8 656.2 951.1L738 950L739.1 821L740.2 692H654C580.9 692 567.4 692.9 565.4 698ZM531.2 905.6C520.8 908.4 510 909.2 507.2 907.4C499.1 902.2 492 903.4 492 910C492 916.5 495 917 528 916C549.9 915.3 561.9 910.3 557.7 903.5C555.1 899.2 554.7 899.3 531.2 905.6Z" fill="#282B3E"/>
</svg>
